<svg width="96" height="96" xmlns="http://www.w3.org/2000/svg">

 <g>
  <title>background</title>
  <rect fill="none" id="canvas_background" height="402" width="582" y="-1" x="-1"/>
 </g>
 <g>
  <title>Layer 1</title>
  <path fill="#50a1f1" id="svg_1" d="m80,4l-64,0c-6.63,0 -12,5.37 -12,12l0,64c0,6.63 5.37,12 12,12l64,0c6.63,0 12,-5.37 12,-12l0,-64c0,-6.63 -5.37,-12 -12,-12zm4,76c0,2.21 -1.79,4 -4,4l-64,0c-2.21,0 -4,-1.79 -4,-4l0,-64c0,-2.21 1.79,-4 4,-4l64,0c2.21,0 4,1.79 4,4l0,64z"/>
  <path fill="#50a1f1" id="svg_2" d="m64,44l-12,0l0,-12c0,-2.209 -1.791,-4 -4,-4s-4,1.791 -4,4l0,12l-12,0c-2.209,0 -4,1.791 -4,4s1.791,4 4,4l12,0l0,12c0,2.209 1.791,4 4,4s4,-1.791 4,-4l0,-12l12,0c2.209,0 4,-1.791 4,-4s-1.791,-4 -4,-4z"/>
 </g>
</svg>