<svg width="512" height="512" xmlns="http://www.w3.org/2000/svg">

 <g>
  <title>background</title>
  <rect fill="none" id="canvas_background" height="402" width="582" y="-1" x="-1"/>
 </g>
 <g>
  <title>Layer 1</title>
  <path fill="#50a1f1" id="svg_1" d="m464.4326,147.54a9.8985,9.8985 0 0 0 -17.56,9.1406a214.2638,214.2638 0 0 1 -38.7686,251.42c-83.8564,83.8476 -220.3154,83.874 -304.207,-0.0088a9.8957,9.8957 0 0 0 -16.8926,7.0049l0,56.9a9.8965,9.8965 0 0 0 19.793,0l0,-34.55a234.9509,234.9509 0 0 0 357.6352,-289.9067z"/>
  <path fill="#50a1f1" id="svg_2" d="m103.8965,103.9022c83.8828,-83.874 220.3418,-83.8652 304.207,-0.0088a9.8906,9.8906 0 0 0 16.8926,-6.9961l0,-56.9a9.8965,9.8965 0 0 0 -19.793,0l0,34.55c-92.1797,-75.9029 -229.1484,-70.7964 -315.2988,15.3539a233.9561,233.9561 0 0 0 -42.3369,274.5528a9.8985,9.8985 0 0 0 17.56,-9.1406a214.2485,214.2485 0 0 1 38.7691,-251.4112z"/>
  <path fill="#50a1f1" id="svg_3" d="m126.4009,254.5555l0,109.44a27.08,27.08 0 0 0 27,27l205.1982,0a27.077,27.077 0 0 0 27,-27l0,-109.44a27.0777,27.0777 0 0 0 -27,-27l-205.1982,0a27.0805,27.0805 0 0 0 -27,27zm201.5991,33.5745a21.1465,21.1465 0 1 1 -21.1465,21.1464a21.1667,21.1667 0 0 1 21.1465,-21.1464zm-72,0a21.1465,21.1465 0 1 1 -21.1465,21.1464a21.1667,21.1667 0 0 1 21.1465,-21.1464zm-72,0a21.1465,21.1465 0 1 1 -21.1465,21.1464a21.1667,21.1667 0 0 1 21.1465,-21.1464z"/>
  <path fill="#50a1f1" id="svg_4" d="m343.6533,207.756l0,-36.0022a87.6533,87.6533 0 0 0 -175.3066,0l0,36.0022l19.7933,0l0,-36.0022a67.86,67.86 0 0 1 135.7208,0l0,36.0022l19.7925,0z"/>
 </g>
</svg>