<svg width="50" height="50" xmlns="http://www.w3.org/2000/svg">

 <g>
  <title>background</title>
  <rect fill="none" id="canvas_background" height="402" width="582" y="-1" x="-1"/>
 </g>
 <g>
  <title>Layer 1</title>
  <path fill="#50a1f1" id="svg_1" d="m44,19.09l0,-18.09l-2,0l0,18.09c-2.833,0.478 -5,2.942 -5,5.91s2.167,5.431 5,5.91l0,18.09l2,0l0,-18.09c2.833,-0.478 5,-2.942 5,-5.91s-2.167,-5.431 -5,-5.91zm-1,9.91c-2.206,0 -4,-1.794 -4,-4s1.794,-4 4,-4s4,1.794 4,4s-1.794,4 -4,4z"/>
  <path fill="#50a1f1" id="svg_2" d="m6,1l0,7.09c-2.833,0.479 -5,2.943 -5,5.91s2.167,5.431 5,5.91l0,29.09l2,0l0,-29.09c2.833,-0.478 5,-2.942 5,-5.91s-2.167,-5.431 -5,-5.91l0,-7.09l-2,0zm5,13c0,2.206 -1.794,4 -4,4s-4,-1.794 -4,-4s1.794,-4 4,-4s4,1.794 4,4z"/>
  <path fill="#50a1f1" id="svg_3" d="m24,1l0,30.09c-2.833,0.478 -5,2.942 -5,5.91s2.167,5.431 5,5.91l0,6.09l2,0l0,-6.09c2.833,-0.478 5,-2.942 5,-5.91s-2.167,-5.431 -5,-5.91l0,-30.09l-2,0zm5,36c0,2.206 -1.794,4 -4,4s-4,-1.794 -4,-4s1.794,-4 4,-4s4,1.794 4,4z"/>
 </g>
</svg>