<svg width="1262" height="1710.258" xmlns="http://www.w3.org/2000/svg">

 <g>
  <title>background</title>
  <rect fill="none" id="canvas_background" height="402" width="582" y="-1" x="-1"/>
 </g>
 <g>
  <title>Layer 1</title>
  <path fill="#50a1f1" id="svg_2" d="m1196.495,713.258l-106.495,0l0,-253.666c0,-253.285 -205.802,-459.35 -459.001,-459.35c-253.2,0 -458.999,206.2 -458.999,459.65l0,253.366l-105.314,0c-36.491,0 -66.686,28.983 -66.686,65.473l0,766.42c0,91.079 74.712,165.106 165.792,165.106l931.597,0c91.08,0 164.611,-74.027 164.611,-165.106l0,-766.42c0,-36.49 -29.015,-65.473 -65.505,-65.473zm-892.495,-253.366c0,-180.588 146.664,-327.508 326.999,-327.508c180.336,0 327.001,146.784 327.001,327.208l0,253.666l-654,0l0,-253.366zm826,1085.259c0,18.218 -14.395,33.106 -32.611,33.106l-931.597,0c-18.216,0 -33.792,-14.889 -33.792,-33.106l0,-699.893l998,0l0,699.893z"/>
  <path fill="#50a1f1" id="svg_3" d="m631,1409.707c36.491,0 66,-29.58 66,-66.071l0,-237.854c0,-36.49 -29.51,-66.07 -66,-66.07c-36.49,0 -66,29.58 -66,66.07l0,237.854c0,36.491 29.509,66.071 66,66.071z"/>
 </g>
</svg>