<svg width="96" height="96" xmlns="http://www.w3.org/2000/svg">
 <title/>

 <g>
  <title>background</title>
  <rect fill="none" id="canvas_background" height="402" width="582" y="-1" x="-1"/>
 </g>
 <g>
  <title>Layer 1</title>
  <path fill="#ec1313" id="svg_2" d="m20.4844,54l45.5156,0a6,6 0 0 0 0,-12l-45.5156,0l7.7578,-7.7578a5.9994,5.9994 0 0 0 -8.4844,-8.4844l-18,18a5.9979,5.9979 0 0 0 0,8.4844l18,18a5.9994,5.9994 0 1 0 8.4844,-8.4844l-7.7578,-7.7578z"/>
  <path fill="#ec1313" id="svg_3" d="m90,0l-48,0a5.9966,5.9966 0 0 0 -6,6l0,12a6,6 0 0 0 12,0l0,-6l36,0l0,72l-36,0l0,-6a6,6 0 0 0 -12,0l0,12a5.9966,5.9966 0 0 0 6,6l48,0a5.9966,5.9966 0 0 0 6,-6l0,-84a5.9966,5.9966 0 0 0 -6,-6z"/>
 </g>
</svg>