<svg width="32" height="32" xmlns="http://www.w3.org/2000/svg">

 <g>
  <title>background</title>
  <rect fill="none" id="canvas_background" height="402" width="582" y="-1" x="-1"/>
 </g>
 <g>
  <title>Layer 1</title>
  <path fill="#50a1f1" id="XMLID_246_" d="m27,6l-6,0l0,-1c0,-1.654 -1.346,-3 -3,-3l-4,0c-1.654,0 -3,1.346 -3,3l0,1l-6,0c-1.103,0 -2,0.897 -2,2l0,1c0,0.552 0.448,1 1,1l24,0c0.552,0 1,-0.448 1,-1l0,-1c0,-1.103 -0.897,-2 -2,-2zm-14,-1c0,-0.551 0.449,-1 1,-1l4,0c0.551,0 1,0.449 1,1l0,1l-6,0l0,-1z"/>
  <path fill="#50a1f1" id="XMLID_249_" d="m6,12l0,15c0,1.654 1.346,3 3,3l14,0c1.654,0 3,-1.346 3,-3l0,-15l-20,0zm13.707,10.293c0.391,0.391 0.391,1.023 0,1.414s-1.023,0.391 -1.414,0l-2.293,-2.293l-2.293,2.293c-0.391,0.391 -1.023,0.391 -1.414,0s-0.391,-1.023 0,-1.414l2.293,-2.293l-2.293,-2.293c-0.391,-0.391 -0.391,-1.023 0,-1.414s1.023,-0.391 1.414,0l2.293,2.293l2.293,-2.293c0.391,-0.391 1.023,-0.391 1.414,0s0.391,1.023 0,1.414l-2.293,2.293l2.293,2.293z"/>
 </g>
</svg>