<?xml version="1.0" ?><svg fill="none" height="24" viewBox="0 0 24 24" width="24" xmlns="http://www.w3.org/2000/svg"><path clip-rule="evenodd" d="M11.2929 3.29289C11.6834 2.90237 12.3166 2.90237 12.7071 3.29289L16.7071 7.29289C17.0976 7.68342 17.0976 8.31658 16.7071 8.70711C16.3166 9.09763 15.6834 9.09763 15.2929 8.70711L13 6.41421V15C13 15.5523 12.5523 16 12 16C11.4477 16 11 15.5523 11 15V6.41421L8.70711 8.70711C8.31658 9.09763 7.68342 9.09763 7.29289 8.70711C6.90237 8.31658 6.90237 7.68342 7.29289 7.29289L11.2929 3.29289ZM4 9C4.55228 9 5 9.44772 5 10V18C5 18.5523 5.44772 19 6 19H18C18.5523 19 19 18.5523 19 18V10C19 9.44772 19.4477 9 20 9C20.5523 9 21 9.44772 21 10V18C21 19.6569 19.6569 21 18 21H6C4.34315 21 3 19.6569 3 18V10C3 9.44772 3.44772 9 4 9Z" fill="black" fill-rule="evenodd"/></svg>